<svg width="2090" height="2090" viewBox="0 0 2090 2090" fill="none" xmlns="http://www.w3.org/2000/svg">
<path d="M2090 1045C2090 907.769 2062.97 771.881 2010.45 645.096C1957.94 518.311 1880.96 403.111 1783.93 306.073C1686.89 209.036 1571.69 132.062 1444.9 79.5459C1318.12 27.0297 1182.23 -5.99857e-06 1045 0C907.769 5.99857e-06 771.881 27.0297 645.096 79.5459C518.311 132.062 403.111 209.036 306.073 306.073C209.036 403.111 132.062 518.311 79.5459 645.096C27.0297 771.881 -1.19971e-05 907.769 0 1045L1045 1045H2090Z" fill="#5FC9E0"/>
<path d="M0 1045C0 1182.23 27.0297 1318.12 79.5459 1444.9C132.062 1571.69 209.036 1686.89 306.073 1783.93C403.111 1880.96 518.311 1957.94 645.096 2010.45C771.881 2062.97 907.769 2090 1045 2090C1182.23 2090 1318.12 2062.97 1444.9 2010.45C1571.69 1957.94 1686.89 1880.96 1783.93 1783.93C1880.96 1686.89 1957.94 1571.69 2010.45 1444.9C2062.97 1318.12 2090 1182.23 2090 1045L1045 1045H0Z" fill="#CBDBEC"/>
</svg>
